<svg height="190" viewBox="0 0 190 190" width="190" xmlns="http://www.w3.org/2000/svg" xmlns:xlink="http://www.w3.org/1999/xlink"><linearGradient id="a" gradientTransform="matrix(188.397 0 0 188.396 .802 .802)" x2="1"><stop offset="0" stop-color="#69eacb"/><stop offset=".48" stop-color="#eaccf8"/><stop offset="1" stop-color="#6654f1"/></linearGradient><path d="m161 129c-5.5 5.5-14.4 5.5-19.8 0l-24.2-24.1c-5.4-5.5-5.4-14.3 0-19.8l24.2-24.1c5.4-5.5 14.3-5.5 19.8 0l24.1 24.1c5.5 5.5 5.5 14.3 0 19.8zm-112.1 0c-5.5 5.5-14.4 5.5-19.8 0l-24.2-24.1c-5.4-5.5-5.4-14.4 0-19.8l24.2-24.2c5.4-5.4 14.3-5.4 19.8 0l24.1 24.2c5.5 5.4 5.5 14.3 0 19.8zm56.1 56c-5.5 5.5-14.4 5.5-19.8 0l-24.2-24.1c-5.4-5.5-5.4-14.3 0-19.8l24.2-24.1c5.4-5.5 14.3-5.5 19.8 0l24.1 24.1c5.5 5.5 5.5 14.3 0 19.8zm0-112.1c-5.5 5.4-14.3 5.4-19.8 0l-24.1-24.2c-5.5-5.4-5.5-14.3 0-19.8l24.1-24.1c5.5-5.5 14.3-5.5 19.8 0l24.1 24.1c5.5 5.5 5.5 14.4 0 19.8z" fill="url(#a)"/></svg>